<svg xmlns="http://www.w3.org/2000/svg" viewBox="0 0 32 32">
  <!-- Fondo circular con gradiente -->
  <defs>
    <linearGradient id="grad" x1="0%" y1="0%" x2="100%" y2="100%">
      <stop offset="0%" style="stop-color:#D97706;stop-opacity:1" />
      <stop offset="100%" style="stop-color:#B45309;stop-opacity:1" />
    </linearGradient>
  </defs>
  
  <!-- Círculo base -->
  <circle cx="16" cy="16" r="15" fill="url(#grad)"/>
  
  <!-- Letra S estilizada -->
  <text x="16" y="22" font-family="Georgia, serif" font-size="18" font-weight="bold" fill="white" text-anchor="middle">S</text>
  
  <!-- Laurel izquierdo -->
  <path d="M6 20 Q4 16 6 12 Q8 14 8 16 Q8 18 6 20" fill="#FCD34D" opacity="0.9"/>
  <path d="M7 22 Q4 18 6 14 Q9 16 8 18 Q7 20 7 22" fill="#FCD34D" opacity="0.7"/>
  
  <!-- Laurel derecho -->
  <path d="M26 20 Q28 16 26 12 Q24 14 24 16 Q24 18 26 20" fill="#FCD34D" opacity="0.9"/>
  <path d="M25 22 Q28 18 26 14 Q23 16 24 18 Q25 20 25 22" fill="#FCD34D" opacity="0.7"/>
</svg>
