<?xml version="1.0" encoding="UTF-8" standalone="no"?><!DOCTYPE svg PUBLIC "-//W3C//DTD SVG 1.1//EN" "http://www.w3.org/Graphics/SVG/1.1/DTD/svg11.dtd"><svg width="100%" height="100%" viewBox="0 0 1947 2389" version="1.1" xmlns="http://www.w3.org/2000/svg" xmlns:xlink="http://www.w3.org/1999/xlink" xml:space="preserve" xmlns:serif="http://www.serif.com/" style="fill-rule:evenodd;clip-rule:evenodd;stroke-linejoin:round;stroke-miterlimit:2;"><path d="M1424.395,496.869c-115.617,46.163 -257.247,30.375 -357.825,-39.883c-185.219,-129.375 -120.555,-298.134 -89.412,-456.986l-974.16,0c-10.618,127.061 6.865,256.086 53.976,375.834c103.46,262.982 346.999,474.735 636.282,553.242c144.598,39.243 297.425,46.654 442.282,85.086c144.857,38.428 289.553,117.76 344.72,247.998c105.81,249.766 -163.593,526.582 -90.023,786.151c64.296,226.821 307.169,309.138 555.898,340.506l0,-2082.484c-34.304,-10.483 -69.047,-18.408 -105.062,-18.382c-160.256,0.124 -269.446,150.137 -416.676,208.919Z" style="fill:#0995a7;fill-rule:nonzero;"/></svg>