<?xml version="1.0" encoding="UTF-8" standalone="no"?><!DOCTYPE svg PUBLIC "-//W3C//DTD SVG 1.1//EN" "http://www.w3.org/Graphics/SVG/1.1/DTD/svg11.dtd"><svg width="100%" height="100%" viewBox="0 0 19356 21062" version="1.1" xmlns="http://www.w3.org/2000/svg" xmlns:xlink="http://www.w3.org/1999/xlink" xml:space="preserve" xmlns:serif="http://www.serif.com/" style="fill-rule:evenodd;clip-rule:evenodd;stroke-linejoin:round;stroke-miterlimit:2;"><path d="M14627.502,0c358.518,283.018 699.96,586.588 1022.532,909.136c2104.658,2104.635 3406.41,5012.234 3406.41,8223.885c0,3211.648 -1301.752,6119.215 -3406.41,8223.873c-2104.66,2104.658 -5012.308,3406.41 -8223.933,3406.41c-2823.357,0 -5411.646,-1006.171 -7426.101,-2679.222l0,384.793c2037.684,1623.012 4618.556,2592.996 7426.101,2592.996c3294.03,0 6276.32,-1335.192 8434.959,-3493.831c2158.759,-2158.759 3493.951,-5140.965 3493.951,-8435.019c0,-3294.066 -1335.192,-6276.298 -3493.951,-8434.995c-243.392,-243.428 -497.413,-476.273 -760.987,-698.026l-472.571,0Zm-14627.502,0l224.642,0c-75.669,59.737 -150.526,120.441 -224.642,181.983l0,-181.983Z" style="fill:#d5ead0;"/><path d="M10928.925,0c1291.648,495.68 2451.402,1257.326 3412.07,2218.067c1769.667,1769.665 2864.333,4214.486 2864.333,6914.954c0,2700.454 -1094.666,5145.289 -2864.333,6914.954c-1769.665,1769.665 -4214.439,2864.214 -6914.894,2864.214c-2700.467,0 -5145.288,-1094.548 -6914.966,-2864.214c-177.349,-177.35 -347.783,-361.625 -511.135,-552.11l0,449.76c97.822,106.65 197.771,211.149 300.036,313.495c1823.719,1823.647 4343.194,2951.635 7126.065,2951.635c2782.859,0 5302.275,-1127.988 7126.042,-2951.635c1823.766,-1823.766 2951.753,-4343.24 2951.753,-7126.1c0,-2782.872 -1127.987,-5302.348 -2951.753,-7126.053c-824.523,-824.523 -1791.282,-1506.795 -2860.283,-2006.968l-762.934,0Zm-7768.594,0l762.946,0c-1291.601,495.68 -2451.39,1257.326 -3412.143,2218.067c-177.349,177.347 -347.783,361.587 -511.135,552.06l0,-449.749c97.822,-106.577 197.771,-211.146 300.036,-313.411c824.523,-824.523 1791.294,-1506.795 2860.296,-2006.968Z" style="fill:#d5ead0;"/><path d="M0,12677.154l0,-762.098c401.131,1070.339 1026.891,2030.769 1820.064,2824c1434.686,1434.676 3416.741,2322.017 5606.037,2322.017c2189.285,0 4171.339,-887.342 5605.977,-2322.017c1434.674,-1434.673 2322.135,-3416.752 2322.135,-5606.035c0,-2189.298 -887.461,-4171.339 -2322.135,-5606.038c-1434.638,-1434.673 -3416.692,-2322.061 -5605.977,-2322.061c-2189.296,0 -4171.351,887.388 -5606.037,2322.061c-793.173,793.174 -1418.934,1753.699 -1820.064,2824.003l0,-762.075c405.478,-848.073 951.844,-1615.903 1608.966,-2273.028c1488.727,-1488.727 3545.423,-2409.54 5817.136,-2409.54c2271.677,-0 4328.385,920.814 5817.124,2409.54c1488.775,1488.738 2409.555,3545.425 2409.555,5817.137c0,2271.713 -920.78,4328.408 -2409.555,5817.064c-1488.739,1488.773 -3545.423,2409.675 -5817.124,2409.675c-2271.712,0 -4328.409,-920.901 -5817.136,-2409.675c-657.122,-657.086 -1203.488,-1424.882 -1608.966,-2272.932Z" style="fill:#d5ead0;"/><path d="M11723.185,4835.925c-1099.694,-1099.694 -2618.97,-1779.888 -4297.084,-1779.888c-1678.125,0 -3197.401,680.193 -4297.107,1779.888c-1099.682,1099.694 -1779.877,2618.969 -1779.877,4297.096c0,1678.124 680.195,3197.437 1779.877,4297.119c1099.706,1099.68 2618.982,1779.818 4297.107,1779.818c1678.114,0 3197.39,-680.138 4297.084,-1779.818c1099.657,-1099.683 1779.913,-2618.995 1779.913,-4297.119c0,-1678.127 -680.256,-3197.402 -1779.913,-4297.096Zm-4297.084,-2078.481c1760.518,0 3354.448,713.636 4508.194,1867.382c1153.794,1153.746 1867.37,2747.665 1867.37,4508.195c0,1760.531 -713.575,3354.485 -1867.37,4508.146c-1153.746,1153.784 -2747.676,1867.478 -4508.194,1867.478c-1760.53,0 -3354.459,-713.695 -4508.206,-1867.478c-1153.747,-1153.661 -1867.369,-2747.615 -1867.369,-4508.146c0,-1760.531 713.623,-3354.45 1867.369,-4508.195c1153.747,-1153.746 2747.676,-1867.382 4508.206,-1867.382Z" style="fill:#d5ead0;"/><path d="M10414.255,6144.867c-764.713,-764.725 -1821.21,-1237.726 -2988.154,-1237.726c-1166.967,0 -2223.464,473.001 -2988.166,1237.726c-764.714,764.702 -1237.715,1821.197 -1237.715,2988.154c0,1166.954 473.002,2223.441 1237.715,2988.201c764.702,764.69 1821.199,1237.621 2988.166,1237.621c1166.944,0 2223.441,-472.931 2988.154,-1237.621c764.702,-764.76 1237.715,-1821.247 1237.715,-2988.201c0,-1166.957 -473.014,-2223.452 -1237.715,-2988.154Zm-2988.154,-1536.308c1249.36,0 2380.486,506.43 3199.253,1325.197c818.754,818.753 1325.195,1949.893 1325.195,3199.265c0,1249.372 -506.441,2380.486 -1325.195,3199.23c-818.767,818.788 -1949.893,1325.279 -3199.253,1325.279c-1249.383,0 -2380.51,-506.491 -3199.264,-1325.279c-818.766,-818.744 -1325.196,-1949.858 -1325.196,-3199.23c0,-1249.372 506.429,-2380.512 1325.196,-3199.265c818.754,-818.767 1949.881,-1325.197 3199.264,-1325.197Z" style="fill:#d5ead0;"/></svg>